<?xml version="1.0" standalone="no"?>
<!DOCTYPE svg PUBLIC "-//W3C//DTD SVG 20010904//EN"
 "http://www.w3.org/TR/2001/REC-SVG-20010904/DTD/svg10.dtd">
<svg version="1.0" xmlns="http://www.w3.org/2000/svg"
 width="512.000000pt" height="512.000000pt" viewBox="0 0 512.000000 512.000000"
 preserveAspectRatio="xMidYMid meet">
<metadata>
Created by potrace 1.11, written by Peter Selinger 2001-2013
</metadata>
<g transform="translate(0.000000,512.000000) scale(0.100000,-0.100000)"
fill="#000000" stroke="none">
<path d="M2377 5114 c-2 -2 -29 -5 -60 -6 -32 -1 -57 -5 -57 -8 0 -3 -17 -6
-38 -6 -53 -2 -92 -8 -92 -14 0 -3 -21 -6 -46 -7 -25 -1 -52 -7 -60 -14 -11
-9 -14 -9 -14 0 0 8 -5 9 -18 2 -11 -6 -30 -12 -43 -15 -13 -3 -62 -16 -109
-31 -47 -14 -92 -27 -100 -29 -8 -3 -28 -10 -45 -17 -16 -7 -33 -13 -37 -14
-5 -2 -9 -3 -10 -5 -2 -1 -10 -3 -18 -5 -8 -2 -33 -11 -55 -21 -22 -10 -43
-17 -47 -16 -5 1 -8 -2 -8 -7 0 -9 -48 -26 -62 -23 -5 1 -8 -2 -8 -6 0 -5 -19
-16 -42 -27 -24 -10 -55 -26 -69 -36 -14 -10 -29 -16 -33 -12 -3 3 -6 1 -6 -5
0 -7 -6 -12 -13 -12 -7 0 -23 -9 -35 -20 -12 -12 -22 -18 -22 -15 0 8 -203
-131 -235 -161 -14 -13 -25 -21 -25 -18 0 3 -6 -1 -14 -8 -7 -7 -46 -42 -87
-78 -113 -101 -184 -174 -297 -307 -10 -12 -27 -34 -38 -49 -10 -15 -26 -35
-34 -44 -22 -24 -40 -52 -46 -72 -4 -10 -10 -18 -15 -18 -4 0 -20 -22 -35 -50
-15 -27 -31 -50 -36 -50 -4 0 -8 -9 -8 -20 0 -11 -4 -20 -9 -20 -5 0 -14 -15
-22 -32 -7 -18 -16 -35 -19 -38 -10 -8 -74 -144 -72 -152 1 -5 -2 -8 -8 -8 -6
0 -9 -3 -8 -7 1 -9 -15 -52 -37 -97 -8 -16 -12 -32 -9 -37 3 -5 1 -9 -5 -9 -7
0 -18 -29 -26 -70 0 -3 -6 -15 -13 -27 -7 -12 -11 -26 -11 -30 1 -4 -1 -15 -4
-23 -12 -29 -46 -155 -52 -190 -3 -19 -8 -43 -11 -53 -3 -11 -8 -31 -10 -45
-2 -15 -7 -40 -10 -57 -3 -16 -6 -55 -7 -87 -1 -31 -5 -54 -9 -52 -10 7 -15
-108 -12 -311 4 -201 7 -254 15 -270 3 -6 5 -25 4 -43 -1 -18 2 -35 7 -38 4
-3 6 -10 3 -15 -4 -5 -1 -9 6 -9 10 0 10 -3 1 -12 -7 -7 -8 -17 -1 -30 5 -10
6 -18 2 -18 -4 0 -1 -5 7 -10 10 -6 11 -10 3 -10 -9 0 -10 -7 -3 -24 5 -13 6
-27 3 -30 -4 -3 -2 -6 3 -6 5 0 10 -8 11 -17 4 -45 50 -215 61 -222 4 -3 7
-13 7 -21 -1 -8 3 -21 8 -27 5 -7 6 -13 2 -13 -4 0 -1 -10 7 -23 7 -12 22 -48
32 -79 11 -32 22 -58 26 -58 4 0 7 -6 7 -12 0 -21 105 -228 115 -228 6 0 8 -6
5 -14 -3 -8 3 -22 13 -31 10 -9 24 -30 30 -46 7 -16 15 -29 19 -29 3 0 12 -13
19 -28 6 -16 21 -38 32 -50 11 -12 20 -24 20 -28 0 -5 13 -23 80 -108 8 -10
23 -27 32 -37 9 -9 14 -20 10 -23 -3 -3 3 -6 13 -6 10 0 16 -3 12 -6 -3 -3 7
-20 23 -38 17 -17 30 -34 30 -38 0 -4 9 -10 20 -13 11 -3 20 -11 20 -16 0 -14
164 -167 266 -249 82 -65 102 -79 108 -73 3 3 6 2 6 -4 0 -11 104 -83 120 -83
5 0 10 -4 10 -10 0 -5 6 -10 14 -10 8 0 16 -3 18 -7 2 -5 32 -23 68 -42 36
-19 68 -39 72 -45 4 -6 8 -8 8 -3 0 4 19 -3 43 -15 23 -12 44 -22 47 -23 3 0
15 -6 26 -13 12 -6 24 -8 28 -5 3 3 6 0 6 -7 0 -7 3 -10 7 -7 3 4 13 1 21 -5
8 -7 19 -13 26 -14 6 -2 48 -16 93 -32 45 -17 84 -27 87 -24 3 3 6 1 6 -5 0
-5 6 -10 13 -10 6 -1 43 -10 82 -21 38 -11 73 -18 77 -16 4 3 8 0 8 -6 0 -7 8
-9 20 -5 11 3 20 3 20 -2 0 -8 13 -10 85 -17 11 -1 25 -4 30 -8 6 -3 18 -4 28
-3 9 2 17 0 17 -3 0 -4 17 -7 38 -8 20 0 48 -4 61 -8 18 -6 22 -5 15 5 -6 11
-5 12 7 3 18 -15 109 -22 109 -9 0 5 4 5 8 -2 5 -9 55 -12 177 -11 94 1 174 4
179 6 6 3 33 6 60 7 28 1 51 3 51 4 0 3 25 6 105 15 19 2 37 5 40 6 3 1 9 2
14 1 5 -1 13 4 17 11 7 10 9 10 9 -1 0 -10 4 -11 13 -3 6 6 28 13 47 15 19 3
35 6 35 7 0 2 14 5 54 14 13 3 49 13 80 22 69 22 63 20 81 26 8 3 44 16 80 28
71 25 132 51 140 59 3 4 12 7 20 9 8 2 41 17 73 33 31 16 57 25 57 21 0 -4 5
1 11 11 6 9 14 15 18 12 5 -2 14 2 21 10 7 8 17 15 21 15 5 0 38 18 73 40 35
22 68 40 74 40 5 0 12 7 16 15 3 8 10 15 16 15 5 0 18 7 27 15 10 8 47 36 83
62 67 50 80 60 158 128 78 68 199 194 275 286 15 19 39 48 52 64 14 17 42 55
62 85 21 30 40 57 44 60 3 3 19 28 34 55 16 28 32 52 35 55 3 3 16 26 28 52
12 27 27 48 32 48 6 0 10 7 10 15 0 8 13 41 29 73 33 63 45 93 43 105 -1 4 2
7 7 7 5 0 12 14 16 30 4 16 10 30 14 30 4 0 8 6 9 13 1 25 12 59 21 71 5 6 10
14 10 19 1 4 1 8 2 10 0 1 2 9 4 17 7 36 10 45 16 50 8 7 40 129 42 158 0 12
5 22 10 22 5 0 7 6 4 14 -3 8 -3 17 1 20 6 7 9 21 15 71 2 17 6 35 8 40 3 6 5
25 4 43 0 17 3 32 8 32 5 0 7 11 5 25 -3 14 -2 25 1 25 27 0 18 645 -10 695
-3 6 -5 25 -4 43 1 17 -1 32 -5 32 -4 0 -7 15 -6 33 1 17 -6 38 -14 45 -11 10
-12 12 -1 6 11 -6 13 -3 7 12 -4 10 -9 26 -11 35 -2 9 -13 49 -25 89 -12 40
-23 80 -25 89 -2 9 -13 41 -23 73 -11 31 -18 59 -15 62 4 3 2 6 -4 6 -10 0
-28 46 -25 63 1 4 -2 7 -8 7 -6 0 -9 3 -8 8 3 16 -110 254 -125 260 -4 2 -5 8
-1 13 3 5 -2 12 -10 15 -9 3 -13 10 -10 15 3 5 0 9 -7 9 -7 0 -9 3 -6 7 4 3
-5 21 -19 40 -14 18 -23 33 -20 33 6 0 -16 28 -41 55 -7 8 -13 17 -13 21 0 9
-81 118 -92 122 -4 2 -8 9 -8 16 0 6 -8 19 -17 27 -10 9 -38 40 -63 69 -46 54
-198 209 -242 245 -13 11 -48 41 -78 66 -30 25 -86 67 -125 94 -38 26 -73 53
-77 59 -4 6 -8 8 -8 3 0 -4 -21 8 -47 26 -27 18 -78 48 -115 67 -38 19 -68 38
-68 42 0 5 -9 8 -19 8 -11 0 -23 5 -26 10 -3 6 -15 10 -25 10 -10 0 -20 5 -22
11 -2 5 -10 11 -18 13 -16 3 -80 29 -115 47 -12 6 -27 11 -35 13 -8 2 -26 8
-40 13 -14 6 -28 9 -32 6 -5 -2 -8 1 -8 6 0 6 -11 11 -24 11 -14 0 -27 4 -30
8 -3 5 -31 15 -63 22 -75 18 -72 17 -78 20 -9 4 -25 7 -46 9 -11 0 -18 4 -16
9 5 6 -13 9 -110 15 -18 1 -33 4 -33 7 0 7 -40 12 -97 14 -24 0 -43 4 -43 8 0
4 -8 7 -17 7 -162 5 -452 8 -456 5z"/>
</g>
</svg>
