<?xml version="1.0" standalone="no"?>
<!DOCTYPE svg PUBLIC "-//W3C//DTD SVG 20010904//EN"
 "http://www.w3.org/TR/2001/REC-SVG-20010904/DTD/svg10.dtd">
<svg version="1.0" xmlns="http://www.w3.org/2000/svg"
 width="512.000000pt" height="512.000000pt" viewBox="0 0 512.000000 512.000000"
 preserveAspectRatio="xMidYMid meet">
<metadata>
Created by potrace 1.11, written by Peter Selinger 2001-2013
</metadata>
<g transform="translate(0.000000,512.000000) scale(0.100000,-0.100000)"
fill="#000000" stroke="none">
<path d="M2378 4875 c-1 -1 -28 -5 -58 -9 -62 -7 -85 -10 -150 -21 -25 -4 -58
-9 -75 -12 -52 -7 -60 -9 -70 -15 -8 -5 -53 -16 -95 -23 -16 -3 -150 -49 -177
-61 -17 -8 -34 -14 -38 -14 -40 0 -434 -211 -457 -244 -4 -6 -8 -8 -8 -4 0 7
-25 -11 -55 -39 -8 -7 -16 -13 -20 -13 -14 0 -131 -102 -245 -213 -103 -101
-155 -160 -230 -262 -16 -22 -33 -44 -38 -50 -30 -38 -52 -75 -45 -75 4 0 3
-4 -3 -8 -18 -12 -84 -119 -77 -126 4 -3 1 -6 -6 -6 -7 0 -10 -4 -7 -9 4 -5 2
-11 -2 -13 -8 -3 -81 -139 -83 -156 -1 -4 -9 -25 -19 -47 -16 -36 -53 -133
-56 -145 0 -3 -3 -12 -7 -20 -9 -23 -46 -152 -51 -180 -2 -14 -5 -25 -6 -25
-2 0 -6 -24 -14 -75 -2 -14 -5 -25 -6 -25 -1 0 -3 -11 -5 -25 -2 -14 -6 -38
-9 -55 -27 -140 -28 -512 -1 -685 15 -97 22 -130 51 -240 13 -52 26 -102 28
-110 3 -8 9 -27 14 -41 6 -15 8 -30 5 -33 -4 -3 -1 -6 5 -6 7 0 11 -3 10 -7
-1 -9 9 -40 23 -65 5 -10 9 -22 9 -28 0 -15 98 -216 139 -285 20 -33 42 -73
50 -88 8 -15 18 -27 23 -27 4 0 8 -6 8 -13 0 -8 9 -22 20 -32 11 -10 20 -24
20 -31 0 -7 3 -14 8 -16 4 -1 20 -21 36 -43 71 -96 214 -248 322 -343 70 -62
230 -182 242 -182 6 0 12 -4 14 -8 12 -32 411 -231 498 -248 8 -2 23 -7 35
-13 45 -22 241 -72 340 -86 17 -2 46 -7 65 -10 19 -3 51 -8 70 -11 61 -10 402
-12 480 -3 164 18 218 28 365 66 55 14 110 28 123 30 12 3 22 10 22 15 0 5 5
6 10 3 6 -4 16 -2 23 3 7 6 15 11 20 11 20 1 107 37 107 44 0 4 4 6 9 3 8 -5
272 124 301 148 8 6 27 18 43 26 15 7 27 17 27 22 0 4 5 8 11 8 14 0 150 101
234 174 83 73 203 194 254 256 20 25 44 54 55 65 47 51 201 298 256 410 33 68
60 126 60 129 0 4 10 28 23 54 13 27 23 56 21 65 -1 10 2 17 7 17 5 0 9 9 9
20 0 12 7 34 15 50 9 17 13 30 9 30 -4 0 -1 7 6 15 7 8 10 15 7 15 -3 0 2 28
12 63 10 34 17 70 15 80 -1 9 1 17 5 17 4 0 8 6 8 13 1 6 4 30 7 52 7 43 13
82 26 185 8 66 6 434 -3 480 -6 29 -16 99 -23 153 -3 21 -9 48 -13 60 -4 12
-7 32 -6 45 1 12 -1 22 -4 22 -4 0 -12 26 -20 58 -7 31 -16 62 -19 67 -4 6 -8
18 -9 27 -5 32 -8 43 -13 48 -3 3 -16 37 -29 75 -34 97 -111 258 -181 376 -63
106 -188 279 -202 279 -4 0 -8 6 -8 13 0 39 -408 406 -508 458 -15 8 -29 16
-32 20 -8 8 -161 94 -205 115 -22 10 -42 21 -45 26 -3 4 -15 9 -25 11 -11 2
-45 16 -76 30 -31 14 -65 27 -75 29 -10 2 -25 9 -32 16 -8 7 -18 10 -22 7 -5
-3 -17 -1 -27 4 -29 16 -192 61 -230 63 -7 1 -13 4 -13 7 0 3 -12 7 -27 8 -16
0 -44 4 -63 7 -19 4 -53 9 -75 11 -22 2 -51 7 -65 10 -25 7 -435 16 -442 10z"/>
</g>
</svg>
